<svg width="77" height="70" viewBox="0 0 77 70" fill="none" xmlns="http://www.w3.org/2000/svg">
<path d="M44.8264 34.5758C41.8197 36.1377 23.6137 26.7896 14.8866 21.9203L15.0737 29.103L21.468 39.1073C21.007 41.2387 20.0267 45.8005 19.7939 46.9963C19.561 48.1921 22.4984 52.2269 23.9962 54.0949C23.7315 51.2052 26.6781 43.0364 28.1845 39.3132C34.1424 40.441 41.7616 36.6248 44.8264 34.5758Z" fill="url(#paint0_linear)"/>
<path d="M62.3027 21.659C62.0113 22.5891 54.6671 30.1861 51.0314 33.8684L51.6903 36.8575C54.5532 38.584 57.4091 36.9945 58.4792 35.9839C59.8751 30.8214 62.5942 20.7289 62.3027 21.659Z" fill="url(#paint1_linear)"/>
<path d="M26.4964 1.21184L31.8313 0C31.8313 2.58525 26.9707 4.84735 24.5404 5.65524C26.4373 6.19384 30.2309 7.473 30.2309 8.28089C30.2309 9.08878 23.8291 8.61751 20.6282 8.28089L19.2055 9.89667C21.9141 9.89667 24.1848 9.29075 23.829 10.5026C23.5444 11.4721 18.1384 12.657 15.4711 13.1282L12.8037 15.7539C14.5109 14.4613 17.7829 14.4074 19.2055 14.5421C19.2055 15.6731 13.515 18.5142 10.6697 19.7933L9.7296 22.1069C10.5092 20.6983 13.8112 19.9819 15.4711 19.7933C15.0442 21.7323 10.4325 25.9872 8.18007 27.8723V31.3058C9.03361 29.0437 11.6181 27.2663 12.8037 26.6604C12.6614 30.0536 8.95071 34.672 7.11313 36.5571L8.18007 41.4044L9.06921 38.3749C9.78053 36.9207 11.381 34.4027 12.0923 33.3255C12.0923 41.0813 10.4326 44.3667 9.60277 45.04L11.3811 48.6755C11.3811 46.575 12.9222 42.9529 13.6928 41.4044C15.5423 47.8676 14.4634 51.5031 13.6928 52.513L16.0046 55.1386L17.0716 48.6755L20.6282 55.1386V58.9761L23.2956 60.1879C22.8689 59.2185 22.288 56.4178 22.0508 55.1386C24.6115 55.1386 27.5042 60.6592 28.6305 63.4195H31.8313C29.8395 62.45 28.8675 60.0533 28.6305 58.9761C34.1788 60.5919 36.1586 63.4195 36.455 64.6313H40.7229C40.8651 61.7229 46.4727 59.6493 49.2587 58.9761C49.2587 60.5919 46.8876 62.6116 45.7021 63.4195H48.0139C50.8591 59.3933 54.1786 56.2213 55.4827 55.1386C56.0517 57.2391 54.5343 59.6493 53.7044 60.5919L56.3718 58.9761L57.0831 55.1386L60.6397 48.6755L61.1732 55.1386L62.9515 52.513C62.0979 48.9582 63.3072 43.6261 64.0185 41.4044C66.2947 42.3739 65.9153 46.925 65.4411 49.0794L67.0416 45.2419L65.4411 40.1926V33.3255L68.9977 40.1926L69.3533 36.5571C66.2236 32.6792 64.9669 27.5356 64.7298 25.4486L68.9977 30.4979C69.3533 29.5554 69.8513 27.6703 68.9977 27.6703C68.1441 27.6703 63.8999 22.419 61.8845 19.7933C63.734 18.6623 66.0931 21.0725 67.0416 22.419V19.7933C66.4725 20.9244 61.4696 16.7638 59.0393 14.5421C61.1732 13.411 63.7221 15.9559 64.7298 17.3697L62.9515 13.1282C60.8068 14.2593 55.4189 11.4451 52.9931 9.89667H58.1501L56.3718 8.28089C54.3801 9.08878 49.4958 8.61751 47.3025 8.28089C47.4448 6.98826 50.6813 5.99186 52.2818 5.65524C49.721 5.65524 46.8283 1.88508 45.7021 0C50.5282 1.23331 53.5636 3.52228 54.9168 4.96952C53.9622 3.60015 53.7044 1.957 53.7044 1.21184C58.2568 1.21184 59.5135 5.92454 59.5728 8.28089L61.1732 9.89667L61.8845 3.83749C63.734 5.29169 65.0262 8.48286 65.4411 9.89667C66.0102 12.3203 65.204 13.7342 64.7298 14.1381L67.0416 17.3697C66.8993 13.3302 68.2864 11.1085 68.9977 10.5026L70.5982 17.3697L68.4642 21.2072L70.0647 25.4486L73.9769 18.3795V26.6604L70.5982 29.2861L71.3095 33.3255L76.4665 27.8723C76.0397 34.6586 72.3764 37.7016 70.5982 38.3749V41.4044L77 38.3749C75.5774 44.1917 70.7167 46.8577 68.4642 47.4636L66.3303 51.3011L74.5104 48.2715C72.5187 53.7652 65.9746 55.1386 62.9515 55.1386L59.5728 58.9761L69.3533 56.9564C67.7885 61.1574 60.047 61.6691 56.3718 61.3998L50.6813 63.4195L61.8845 64.6313C56.6208 67.8629 50.4442 65.9778 48.0139 64.6313L43.746 65.4392L52.2818 69.4787C50.4323 71.256 43.0939 68.0649 39.6559 66.2471H37.3441C32.7917 70.125 27.6228 70.0173 25.6074 69.4787L33.254 65.4392H28.6305C22.7977 67.7013 17.4272 65.8432 15.4711 64.6313L25.6074 63.4195L20.6282 61.3998H13.6928C12.2703 60.915 9.42492 58.2355 8.18007 56.9564L17.0716 57.7643L13.6928 55.1386H10.6697C8.82019 55.3002 4.56423 50.6279 2.66744 48.2715C4.80139 47.4636 8.89141 49.416 10.6697 50.4932L9.06921 47.4636C3.94773 46.0094 0.889121 40.1253 0 37.365L7.11313 41.4044L6.22399 38.3749C2.66744 37.2438 1.42264 30.7672 1.2448 27.6703L6.22399 33.3255V29.2861C2.66744 27.8319 3.31946 21.4091 4.09004 18.3795C5.51267 19.1874 6.6982 22.7556 7.11313 24.4387L8.18007 22.419C6.18838 14.8248 7.94296 10.9065 9.06921 9.89667C10.0651 10.2198 10.5511 15.0133 10.6697 17.3697L12.0923 14.1381V8.28089L15.4711 3.83749V10.9065L18.1385 8.28089C17.8539 4.40301 21.8136 1.14451 23.829 0L22.762 5.65524L26.4964 1.21184Z" fill="url(#paint2_linear)"/>
<defs>
<linearGradient id="paint0_linear" x1="37.6083" y1="9.21044" x2="40.9536" y2="55.024" gradientUnits="userSpaceOnUse">
<stop stop-color="#FCEA94"/>
<stop offset="1" stop-color="#FA735C"/>
</linearGradient>
<linearGradient id="paint1_linear" x1="37.6083" y1="9.21044" x2="40.9536" y2="55.024" gradientUnits="userSpaceOnUse">
<stop stop-color="#FCEA94"/>
<stop offset="1" stop-color="#FA735C"/>
</linearGradient>
<linearGradient id="paint2_linear" x1="38.5" y1="0" x2="38.5" y2="70" gradientUnits="userSpaceOnUse">
<stop stop-color="#FCF197"/>
<stop offset="1" stop-color="#F95E52"/>
</linearGradient>
</defs>
</svg>
