<svg width="244" height="58" viewBox="0 0 244 58" fill="none" xmlns="http://www.w3.org/2000/svg">
<path d="M77.848 20.912H89.008V23.384H80.92V28.064H88.528V30.56H80.92V38H77.848V20.912ZM105.646 38H102.382L100.198 32.312C100.006 31.784 99.7104 31.416 99.3104 31.208C98.9104 31 98.3904 30.896 97.7504 30.896H94.6544V38H91.5824V20.912H98.9024C100.838 20.912 102.31 21.336 103.318 22.184C104.326 23.032 104.83 24.248 104.83 25.832C104.83 26.968 104.526 27.936 103.918 28.736C103.326 29.52 102.478 30.08 101.374 30.416C102.382 30.624 103.11 31.328 103.558 32.528L105.646 38ZM98.4704 28.496C99.6384 28.496 100.502 28.28 101.062 27.848C101.622 27.416 101.902 26.76 101.902 25.88C101.902 25.016 101.622 24.376 101.062 23.96C100.518 23.528 99.6544 23.312 98.4704 23.312H94.6064V28.496H98.4704ZM119.786 33.992H111.434L109.706 38H106.586L114.314 20.912H116.834L124.586 38H121.49L119.786 33.992ZM118.754 31.592L115.61 24.272L112.466 31.592H118.754ZM150.914 20.912L144.866 38H142.346L138.05 25.712L133.706 38H131.186L125.162 20.912H128.306L132.578 33.656L137.018 20.912H139.226L143.57 33.752L147.938 20.912H150.914ZM153.317 20.912H156.413V35.456H164.405V38H153.317V20.912ZM172.53 38.216C171.218 38.216 169.986 38.04 168.834 37.688C167.698 37.336 166.73 36.832 165.93 36.176L166.986 33.92C167.818 34.544 168.682 35.008 169.578 35.312C170.49 35.6 171.482 35.744 172.554 35.744C173.738 35.744 174.65 35.536 175.29 35.12C175.946 34.704 176.274 34.12 176.274 33.368C176.274 32.728 175.97 32.24 175.362 31.904C174.77 31.552 173.786 31.224 172.41 30.92C170.266 30.456 168.706 29.856 167.73 29.12C166.754 28.384 166.266 27.312 166.266 25.904C166.266 24.896 166.538 24 167.082 23.216C167.626 22.432 168.394 21.816 169.386 21.368C170.394 20.92 171.554 20.696 172.866 20.696C174.066 20.696 175.202 20.88 176.274 21.248C177.362 21.6 178.25 22.096 178.938 22.736L177.906 24.992C176.386 23.776 174.706 23.168 172.866 23.168C171.762 23.168 170.89 23.4 170.25 23.864C169.61 24.312 169.29 24.928 169.29 25.712C169.29 26.384 169.57 26.896 170.13 27.248C170.706 27.6 171.682 27.928 173.058 28.232C174.482 28.568 175.642 28.936 176.538 29.336C177.434 29.72 178.122 30.224 178.602 30.848C179.082 31.456 179.322 32.224 179.322 33.152C179.322 34.176 179.05 35.072 178.506 35.84C177.962 36.592 177.178 37.176 176.154 37.592C175.13 38.008 173.922 38.216 172.53 38.216ZM193.544 33.992H185.192L183.464 38H180.344L188.072 20.912H190.592L198.344 38H195.248L193.544 33.992ZM192.512 31.592L189.368 24.272L186.224 31.592H192.512ZM200.192 20.912H203.288V35.456H211.28V38H200.192V20.912ZM213.621 20.912H216.717V35.456H224.709V38H213.621V20.912ZM238.403 33.992H230.051L228.323 38H225.203L232.931 20.912H235.451L243.203 38H240.107L238.403 33.992ZM237.371 31.592L234.227 24.272L231.083 31.592H237.371Z" fill="white"/>
<path d="M36.6762 28.2893C34.2161 29.5672 19.3203 21.9188 12.1799 17.9348L12.333 23.8116L17.5647 31.9969C17.1875 33.7408 16.3855 37.4732 16.195 38.4515C16.0045 39.4299 18.4078 42.7312 19.6332 44.2595C19.4167 41.8952 21.8275 35.2116 23.06 32.1654C27.9347 33.0881 34.1686 29.9658 36.6762 28.2893Z" fill="url(#paint0_linear)"/>
<path d="M50.975 17.7211C50.7365 18.482 44.7276 24.6978 41.7529 27.7105L42.2921 30.1562C44.6344 31.5688 46.9711 30.2682 47.8466 29.4414C48.9887 25.2176 51.2134 16.9601 50.975 17.7211Z" fill="url(#paint1_linear)"/>
<path d="M21.6789 0.991503L26.0438 0C26.0438 2.11521 22.0669 3.96601 20.0785 4.62702C21.6305 5.06768 24.7344 6.11427 24.7344 6.77527C24.7344 7.43628 19.4965 7.05069 16.8776 6.77527L15.7136 8.09728C17.9297 8.09728 19.7875 7.60153 19.4964 8.59303C19.2636 9.38623 14.8405 10.3557 12.6581 10.7413L10.4757 12.8895C11.8726 11.8319 14.5497 11.7879 15.7136 11.898C15.7136 12.8234 11.0577 15.148 8.72973 16.1946L7.96059 18.0874C8.59842 16.935 11.3001 16.3488 12.6581 16.1946C12.3089 17.781 8.53572 21.2622 6.69278 22.8046V25.6138C7.39114 23.763 9.50574 22.3088 10.4757 21.8131C10.3594 24.5893 7.32331 28.368 5.81984 29.9104L6.69278 33.8764L7.42026 31.3976C8.00225 30.2078 9.31172 28.1477 9.8937 27.2663C9.8937 33.612 8.53578 36.3 7.85681 36.8509L9.31178 39.8254C9.31178 38.1068 10.5727 35.1433 11.2032 33.8764C12.7164 39.1644 11.8337 42.1389 11.2032 42.9651L13.0947 45.1134L13.9677 39.8254L16.8776 45.1134V48.2532L19.06 49.2447C18.7109 48.4515 18.2356 46.16 18.0416 45.1134C20.1367 45.1134 22.5035 49.6303 23.4249 51.8887H26.0438C24.4142 51.0955 23.6189 49.1345 23.4249 48.2532C27.9644 49.5752 29.5843 51.8887 29.8268 52.8802H33.3187C33.4351 50.5006 38.0231 48.804 40.3025 48.2532C40.3025 49.5752 38.3626 51.2277 37.3926 51.8887H39.2841C41.612 48.5945 44.3279 45.9992 45.3949 45.1134C45.8605 46.832 44.6189 48.804 43.94 49.5752L46.1224 48.2532L46.7044 45.1134L49.6143 39.8254L50.0508 45.1134L51.5058 42.9651C50.8074 40.0567 51.7968 35.6941 52.3787 33.8764C54.2411 34.6696 53.9307 38.3932 53.5427 40.1559L54.8522 37.0161L53.5427 32.8849V27.2663L56.4527 32.8849L56.7436 29.9104C54.1829 26.7375 53.1547 22.5292 52.9607 20.8216L56.4527 24.9528C56.7436 24.1817 57.151 22.6393 56.4527 22.6393C55.7543 22.6393 52.2818 18.3428 50.6328 16.1946C52.146 15.2692 54.0762 17.2411 54.8522 18.3428V16.1946C54.3866 17.12 50.2933 13.7158 48.3048 11.898C50.0508 10.9726 52.1363 13.0548 52.9607 14.2115L51.5058 10.7413C49.751 11.6667 45.3427 9.3642 43.358 8.09728H47.5774L46.1224 6.77527C44.4928 7.43628 40.4965 7.05069 38.7021 6.77527C38.8185 5.71767 41.4665 4.90243 42.776 4.62702C40.6808 4.62702 38.3141 1.54234 37.3926 0C41.3413 1.00907 43.8248 2.88186 44.932 4.06597C44.1509 2.94557 43.94 1.60118 43.94 0.991503C47.6647 0.991503 48.6928 4.84735 48.7413 6.77527L50.0508 8.09728L50.6328 3.13976C52.146 4.32957 53.2032 6.94052 53.5427 8.09728C54.0083 10.0803 53.3487 11.237 52.9607 11.5675L54.8522 14.2115C54.7358 10.9065 55.8707 9.08878 56.4527 8.59303L57.7621 14.2115L56.0162 17.3513L57.3256 20.8216L60.5266 15.0378V21.8131L57.7621 23.9613L58.3441 27.2663L62.5635 22.8046C62.2143 28.357 59.2171 30.8468 57.7621 31.3976V33.8764L63 31.3976C61.836 36.1568 57.8591 38.3381 56.0162 38.8339L54.2702 41.9736L60.963 39.4949C59.3335 43.9897 53.9792 45.1134 51.5058 45.1134L48.7413 48.2532L56.7436 46.6007C55.4633 50.0379 49.1293 50.4565 46.1224 50.2362L41.4665 51.8887L50.6328 52.8802C46.3261 55.5242 41.2725 53.9819 39.2841 52.8802L35.7921 53.5412L42.776 56.8462C41.2628 58.3004 35.2587 55.6894 32.4457 54.2022H30.5543C26.8296 57.375 22.6005 57.2869 20.9515 56.8462L27.2079 53.5412H23.4249C18.6527 55.392 14.2586 53.8717 12.6581 52.8802L20.9515 51.8887L16.8776 50.2362H11.2032C10.0393 49.8396 7.7113 47.6472 6.69278 46.6007L13.9677 47.2617L11.2032 45.1134H8.72973C7.21652 45.2456 3.73437 41.4228 2.18245 39.4949C3.92841 38.8339 7.27479 40.4313 8.72973 41.3126L7.42026 38.8339C3.22996 37.6441 0.727463 32.8298 0 30.5714L5.81984 33.8764L5.09235 31.3976C2.18245 30.4722 1.16398 25.1732 1.01848 22.6393L5.09235 27.2663V23.9613C2.18245 22.7715 2.71592 17.5166 3.34639 15.0378C4.51037 15.6988 5.48034 18.6182 5.81984 19.9953L6.69278 18.3428C5.06322 12.1294 6.49878 8.92353 7.42026 8.09728C8.23504 8.36168 8.63273 12.2836 8.72973 14.2115L9.8937 11.5675V6.77527L12.6581 3.13976V8.92353L14.8406 6.77527C14.6078 3.60246 17.8475 0.93642 19.4964 0L18.6235 4.62702L21.6789 0.991503Z" fill="url(#paint2_linear)"/>
<defs>
<linearGradient id="paint0_linear" x1="30.7704" y1="7.53586" x2="33.5075" y2="45.0197" gradientUnits="userSpaceOnUse">
<stop stop-color="#FCEA94"/>
<stop offset="1" stop-color="#FA735C"/>
</linearGradient>
<linearGradient id="paint1_linear" x1="30.7704" y1="7.53586" x2="33.5075" y2="45.0197" gradientUnits="userSpaceOnUse">
<stop stop-color="#FCEA94"/>
<stop offset="1" stop-color="#FA735C"/>
</linearGradient>
<linearGradient id="paint2_linear" x1="31.5" y1="0" x2="31.5" y2="57.2727" gradientUnits="userSpaceOnUse">
<stop stop-color="#FCF197"/>
<stop offset="1" stop-color="#F95E52"/>
</linearGradient>
</defs>
</svg>
